<mxfile host="Electron" agent="Mozilla/5.0 (Windows NT 10.0; Win64; x64) AppleWebKit/537.36 (KHTML, like Gecko) draw.io/26.2.2 Chrome/134.0.6998.178 Electron/35.1.2 Safari/537.36" version="26.2.2">
  <diagram name="Page-1" id="6nOO23UPGoOhq0bjTRqQ">
    <mxGraphModel dx="2068" dy="1202" grid="1" gridSize="10" guides="1" tooltips="1" connect="1" arrows="1" fold="1" page="1" pageScale="1" pageWidth="827" pageHeight="1169" math="0" shadow="0">
      <root>
        <mxCell id="0" />
        <mxCell id="1" parent="0" />
        <mxCell id="zRrtX3_Rmf5NJ3VM8Awz-1" value="&lt;strong style=&quot;box-sizing: inherit; font-family: &amp;quot;YS Text&amp;quot;, sans-serif; text-align: left; white-space-collapse: preserve-breaks;&quot;&gt;&lt;font style=&quot;color: rgb(51, 0, 0);&quot;&gt;Управление обслуживанием в сети отделений&lt;/font&gt;&lt;/strong&gt;" style="rounded=1;whiteSpace=wrap;html=1;fontSize=11;fillColor=#f5f5f5;fontColor=#333333;strokeColor=#666666;" vertex="1" parent="1">
          <mxGeometry x="80" y="480" width="120" height="60" as="geometry" />
        </mxCell>
        <mxCell id="zRrtX3_Rmf5NJ3VM8Awz-2" value="&lt;strong style=&quot;box-sizing: inherit; font-family: &amp;quot;YS Text&amp;quot;, sans-serif; text-align: left; white-space-collapse: preserve-breaks;&quot;&gt;&lt;font style=&quot;color: rgb(51, 0, 0);&quot;&gt;Кол-центр&lt;/font&gt;&lt;/strong&gt;" style="rounded=1;whiteSpace=wrap;html=1;fontSize=11;fillColor=#f5f5f5;fontColor=#333333;strokeColor=#666666;" vertex="1" parent="1">
          <mxGeometry x="80" y="880" width="120" height="130" as="geometry" />
        </mxCell>
        <mxCell id="zRrtX3_Rmf5NJ3VM8Awz-3" value="&lt;div style=&quot;text-align: left;&quot;&gt;&lt;span style=&quot;background-color: transparent; white-space-collapse: preserve-breaks;&quot;&gt;&lt;font face=&quot;YS Text, sans-serif&quot; color=&quot;#330000&quot;&gt;&lt;b&gt;IT-отдел&lt;/b&gt;&lt;/font&gt;&lt;/span&gt;&lt;/div&gt;" style="rounded=1;whiteSpace=wrap;html=1;fontSize=11;fillColor=#f5f5f5;fontColor=#333333;strokeColor=#666666;" vertex="1" parent="1">
          <mxGeometry x="80" y="720" width="120" height="60" as="geometry" />
        </mxCell>
        <mxCell id="zRrtX3_Rmf5NJ3VM8Awz-5" value="&lt;div style=&quot;&quot;&gt;&lt;font face=&quot;YS Text, sans-serif&quot; color=&quot;#330000&quot;&gt;&lt;span style=&quot;white-space-collapse: preserve-breaks;&quot;&gt;&lt;b&gt;Управление обслуживанием депозитных продуктов&lt;/b&gt;&lt;/span&gt;&lt;/font&gt;&lt;/div&gt;" style="rounded=1;whiteSpace=wrap;html=1;fontSize=11;align=center;fillColor=#f5f5f5;fontColor=#333333;strokeColor=#666666;" vertex="1" parent="1">
          <mxGeometry x="80" y="560" width="120" height="60" as="geometry" />
        </mxCell>
        <mxCell id="zRrtX3_Rmf5NJ3VM8Awz-6" value="&lt;div style=&quot;&quot;&gt;&lt;font face=&quot;YS Text, sans-serif&quot; color=&quot;#330000&quot;&gt;&lt;span style=&quot;white-space-collapse: preserve-breaks;&quot;&gt;&lt;b&gt;Управление обслуживанием кредитных продуктов&lt;/b&gt;&lt;/span&gt;&lt;/font&gt;&lt;/div&gt;" style="rounded=1;whiteSpace=wrap;html=1;fontSize=11;align=center;fillColor=#f5f5f5;fontColor=#333333;strokeColor=#666666;" vertex="1" parent="1">
          <mxGeometry x="80" y="640" width="120" height="60" as="geometry" />
        </mxCell>
        <mxCell id="zRrtX3_Rmf5NJ3VM8Awz-7" value="&lt;div style=&quot;&quot;&gt;&lt;font face=&quot;YS Text, sans-serif&quot; color=&quot;#330000&quot;&gt;&lt;span style=&quot;white-space-collapse: preserve-breaks;&quot;&gt;&lt;b&gt;Команда цифровой трансформации розничного бизнеса&lt;/b&gt;&lt;/span&gt;&lt;/font&gt;&lt;/div&gt;" style="rounded=1;whiteSpace=wrap;html=1;fontSize=11;align=center;fillColor=#f5f5f5;fontColor=#333333;strokeColor=#666666;" vertex="1" parent="1">
          <mxGeometry x="80" y="800" width="120" height="60" as="geometry" />
        </mxCell>
        <mxCell id="zRrtX3_Rmf5NJ3VM8Awz-8" value="&lt;div style=&quot;&quot;&gt;&lt;span style=&quot;background-color: transparent; white-space-collapse: preserve-breaks;&quot;&gt;&lt;font face=&quot;YS Text, sans-serif&quot; color=&quot;#330000&quot;&gt;&lt;b&gt;Продажи в сети отделений&lt;/b&gt;&lt;/font&gt;&lt;/span&gt;&lt;/div&gt;" style="rounded=1;whiteSpace=wrap;html=1;fontSize=11;align=center;fillColor=#f5f5f5;fontColor=#333333;strokeColor=#666666;" vertex="1" parent="1">
          <mxGeometry x="240" y="400" width="120" height="60" as="geometry" />
        </mxCell>
        <mxCell id="zRrtX3_Rmf5NJ3VM8Awz-9" value="&lt;div style=&quot;&quot;&gt;&lt;span style=&quot;background-color: transparent; white-space-collapse: preserve-breaks;&quot;&gt;&lt;font face=&quot;YS Text, sans-serif&quot; color=&quot;#330000&quot;&gt;&lt;b&gt;Продажи через кол-центр&lt;/b&gt;&lt;/font&gt;&lt;/span&gt;&lt;/div&gt;" style="rounded=1;whiteSpace=wrap;html=1;fontSize=11;align=center;fillColor=#f5f5f5;fontColor=#333333;strokeColor=#666666;" vertex="1" parent="1">
          <mxGeometry x="380" y="400" width="120" height="60" as="geometry" />
        </mxCell>
        <mxCell id="zRrtX3_Rmf5NJ3VM8Awz-10" value="&lt;div style=&quot;&quot;&gt;&lt;span style=&quot;background-color: transparent; white-space-collapse: preserve-breaks;&quot;&gt;&lt;font face=&quot;YS Text, sans-serif&quot; color=&quot;#330000&quot;&gt;&lt;b&gt;Digital-оповещения клиентов&lt;/b&gt;&lt;/font&gt;&lt;/span&gt;&lt;/div&gt;" style="rounded=1;whiteSpace=wrap;html=1;fontSize=11;align=center;fillColor=#f5f5f5;fontColor=#333333;strokeColor=#666666;" vertex="1" parent="1">
          <mxGeometry x="940" y="400" width="120" height="60" as="geometry" />
        </mxCell>
        <mxCell id="zRrtX3_Rmf5NJ3VM8Awz-11" value="&lt;div style=&quot;&quot;&gt;&lt;span style=&quot;background-color: transparent; white-space-collapse: preserve-breaks;&quot;&gt;&lt;font face=&quot;YS Text, sans-serif&quot; color=&quot;#330000&quot;&gt;&lt;b&gt;Обслуживание депозитных процессов&lt;/b&gt;&lt;/font&gt;&lt;/span&gt;&lt;/div&gt;" style="rounded=1;whiteSpace=wrap;html=1;fontSize=11;align=center;fillColor=#f5f5f5;fontColor=#333333;strokeColor=#666666;" vertex="1" parent="1">
          <mxGeometry x="520" y="400" width="120" height="60" as="geometry" />
        </mxCell>
        <mxCell id="zRrtX3_Rmf5NJ3VM8Awz-12" value="&lt;div style=&quot;&quot;&gt;&lt;span style=&quot;background-color: transparent; white-space-collapse: preserve-breaks;&quot;&gt;&lt;font face=&quot;YS Text, sans-serif&quot; color=&quot;#330000&quot;&gt;&lt;b&gt;Обслуживание кредитных процессов&lt;/b&gt;&lt;/font&gt;&lt;/span&gt;&lt;/div&gt;" style="rounded=1;whiteSpace=wrap;html=1;fontSize=11;align=center;fillColor=#f5f5f5;fontColor=#333333;strokeColor=#666666;" vertex="1" parent="1">
          <mxGeometry x="660" y="400" width="120" height="60" as="geometry" />
        </mxCell>
        <mxCell id="zRrtX3_Rmf5NJ3VM8Awz-13" value="&lt;div style=&quot;&quot;&gt;&lt;span style=&quot;background-color: transparent; white-space-collapse: preserve-breaks;&quot;&gt;&lt;font face=&quot;YS Text, sans-serif&quot; color=&quot;#330000&quot;&gt;&lt;b&gt;Управление договорами&lt;/b&gt;&lt;/font&gt;&lt;/span&gt;&lt;/div&gt;" style="rounded=1;whiteSpace=wrap;html=1;fontSize=11;align=center;fillColor=#f5f5f5;fontColor=#333333;strokeColor=#666666;" vertex="1" parent="1">
          <mxGeometry x="800" y="400" width="120" height="60" as="geometry" />
        </mxCell>
        <mxCell id="zRrtX3_Rmf5NJ3VM8Awz-21" value="&lt;div style=&quot;&quot;&gt;&lt;font face=&quot;YS Text, sans-serif&quot; color=&quot;#330000&quot;&gt;&lt;span style=&quot;white-space-collapse: preserve-breaks;&quot;&gt;&lt;b&gt;Система кол-центра&lt;/b&gt;&lt;/span&gt;&lt;/font&gt;&lt;/div&gt;" style="rounded=1;whiteSpace=wrap;html=1;fontSize=11;align=center;fillColor=#dae8fc;strokeColor=#6c8ebf;" vertex="1" parent="1">
          <mxGeometry x="380" y="880" width="120" height="60" as="geometry" />
        </mxCell>
        <mxCell id="zRrtX3_Rmf5NJ3VM8Awz-22" value="&lt;div style=&quot;&quot;&gt;&lt;font face=&quot;YS Text, sans-serif&quot; color=&quot;#330000&quot;&gt;&lt;span style=&quot;white-space-collapse: preserve-breaks;&quot;&gt;&lt;b&gt;Сайт&lt;/b&gt;&lt;/span&gt;&lt;/font&gt;&amp;nbsp;&lt;/div&gt;" style="rounded=1;whiteSpace=wrap;html=1;fontSize=11;align=center;fillColor=#dae8fc;strokeColor=#6c8ebf;" vertex="1" parent="1">
          <mxGeometry x="940" y="800" width="120" height="60" as="geometry" />
        </mxCell>
        <mxCell id="zRrtX3_Rmf5NJ3VM8Awz-24" value="&lt;div style=&quot;&quot;&gt;&lt;font face=&quot;YS Text, sans-serif&quot; color=&quot;#330000&quot;&gt;&lt;span style=&quot;white-space-collapse: preserve-breaks;&quot;&gt;&lt;b&gt;Автоматизированная банковская система&lt;/b&gt;&lt;/span&gt;&lt;/font&gt;&lt;/div&gt;" style="rounded=1;whiteSpace=wrap;html=1;fontSize=11;align=center;fillColor=#dae8fc;strokeColor=#6c8ebf;" vertex="1" parent="1">
          <mxGeometry x="240" y="480" width="690" height="300" as="geometry" />
        </mxCell>
        <mxCell id="zRrtX3_Rmf5NJ3VM8Awz-26" value="&lt;div style=&quot;&quot;&gt;&lt;font face=&quot;YS Text, sans-serif&quot; color=&quot;#330000&quot;&gt;&lt;span style=&quot;white-space-collapse: preserve-breaks;&quot;&gt;&lt;b&gt;Телеком-оператор&lt;/b&gt;&lt;/span&gt;&lt;/font&gt;&lt;/div&gt;" style="rounded=1;whiteSpace=wrap;html=1;fontSize=11;align=center;fillColor=#dae8fc;strokeColor=#6c8ebf;" vertex="1" parent="1">
          <mxGeometry x="940" y="950" width="120" height="60" as="geometry" />
        </mxCell>
        <mxCell id="zRrtX3_Rmf5NJ3VM8Awz-29" value="&lt;div style=&quot;&quot;&gt;&lt;font face=&quot;YS Text, sans-serif&quot; color=&quot;#330000&quot;&gt;&lt;span style=&quot;white-space-collapse: preserve-breaks;&quot;&gt;&lt;b&gt;СМС-шлюз телеком-оператора&lt;/b&gt;&lt;/span&gt;&lt;/font&gt;&lt;/div&gt;" style="rounded=1;whiteSpace=wrap;html=1;fontSize=11;align=center;fillColor=#dae8fc;strokeColor=#6c8ebf;" vertex="1" parent="1">
          <mxGeometry x="940" y="880" width="120" height="60" as="geometry" />
        </mxCell>
        <mxCell id="zRrtX3_Rmf5NJ3VM8Awz-30" value="&lt;div style=&quot;&quot;&gt;&lt;font face=&quot;YS Text, sans-serif&quot; color=&quot;#330000&quot;&gt;&lt;span style=&quot;white-space-collapse: preserve-breaks;&quot;&gt;&lt;b&gt;Система партнёрского кол-центра&lt;/b&gt;&lt;/span&gt;&lt;/font&gt;&lt;/div&gt;" style="rounded=1;whiteSpace=wrap;html=1;fontSize=11;align=center;fillColor=#dae8fc;strokeColor=#6c8ebf;" vertex="1" parent="1">
          <mxGeometry x="380" y="950" width="120" height="60" as="geometry" />
        </mxCell>
        <mxCell id="zRrtX3_Rmf5NJ3VM8Awz-14" value="&lt;div style=&quot;&quot;&gt;&lt;font face=&quot;YS Text, sans-serif&quot; color=&quot;#330000&quot;&gt;&lt;span style=&quot;white-space-collapse: preserve-breaks;&quot;&gt;&lt;b&gt;Интернет-банк&lt;/b&gt;&lt;/span&gt;&lt;/font&gt;&lt;/div&gt;" style="rounded=1;whiteSpace=wrap;html=1;fontSize=11;align=center;fillColor=#dae8fc;strokeColor=#6c8ebf;" vertex="1" parent="1">
          <mxGeometry x="520" y="700" width="270" height="160" as="geometry" />
        </mxCell>
      </root>
    </mxGraphModel>
  </diagram>
</mxfile>
